<svg width="138" height="48" viewBox="0 0 138 48" fill="none" xmlns="http://www.w3.org/2000/svg">
<path d="M21.0596 0.849609L21.6191 0.864258C24.4093 1.0056 27.0561 2.17647 29.041 4.16113L29.4277 4.56738C31.303 6.63823 32.3494 9.33659 32.3525 12.1436L32.3486 12.2314C32.3429 12.2897 32.3315 12.3473 32.3145 12.4033L32.2852 12.4854C32.2515 12.5665 32.2059 12.6423 32.1504 12.71L32.0918 12.7754C32.0295 12.8377 31.9583 12.8903 31.8809 12.9316L31.8018 12.9688C31.7206 13.0024 31.635 13.0236 31.5479 13.0322L31.46 13.0371H1.74316C1.53595 13.0371 1.33564 12.9651 1.17676 12.835L1.11133 12.7754C0.943924 12.6079 0.849633 12.3803 0.849609 12.1436L0.864258 11.584C1.00563 8.79364 2.17619 6.14607 4.16113 4.16113L4.56738 3.77539C6.63822 1.90009 9.33658 0.852836 12.1436 0.849609H21.0596ZM11.6963 2.64648C9.61258 2.7471 7.61919 3.53032 6.02344 4.87402L5.6875 5.16992C3.97034 6.75965 2.90303 8.9253 2.68066 11.251H30.5225C30.3143 9.07406 29.366 7.03777 27.8369 5.48242L27.5156 5.16992C25.8685 3.6451 23.7393 2.75431 21.5068 2.64648L21.0586 2.63574H12.1445L11.6963 2.64648Z" fill="#E8590C" stroke="#E8590C" stroke-width="0.3"/>
<path d="M31.46 35.0244L31.5479 35.0292C31.635 35.0378 31.7206 35.0591 31.8018 35.0927L31.8809 35.1298C31.9583 35.1712 32.0295 35.2238 32.0918 35.2861C32.1747 35.369 32.2403 35.4678 32.2852 35.5761C32.33 35.6844 32.3526 35.8007 32.3525 35.9179V38.8896L32.3428 39.3017C32.2456 41.2209 31.4872 43.0482 30.1973 44.4726L29.9131 44.7714C28.4504 46.2341 26.4995 47.097 24.4434 47.2011L24.0312 47.2119H9.17188C7.10333 47.2095 5.11485 46.4377 3.58887 45.0556L3.29004 44.7714C1.72994 43.2113 0.852116 41.0959 0.849609 38.8896V35.9179L0.854492 35.829C0.87488 35.6248 0.964901 35.4325 1.11133 35.2861L1.17676 35.2265C1.33563 35.0963 1.53599 35.0244 1.74316 35.0244H31.46ZM2.63574 38.8896L2.64453 39.2128C2.72632 40.8279 3.40387 42.3598 4.55273 43.5087L4.78711 43.7324C5.98571 44.8179 7.5481 45.4238 9.17285 45.4257H24.0303C25.7633 45.4238 27.425 44.7341 28.6504 43.5087L28.874 43.2744C29.9594 42.0759 30.5655 40.5141 30.5674 38.8896V36.8105H2.63574V38.8896Z" fill="#E8590C" stroke="#E8590C" stroke-width="0.3"/>
<path d="M24.0244 20.3034C24.7602 20.3034 25.4802 20.5045 26.1074 20.8815L26.3701 21.0544L26.374 21.0563L26.5254 21.1618C26.8879 21.3928 27.3098 21.5163 27.7422 21.5163L27.9268 21.5095C28.3553 21.4745 28.7668 21.3177 29.1113 21.0563L29.1133 21.0544L29.376 20.8806C30.0018 20.5008 30.7238 20.3047 31.46 20.3161V20.3151L31.4609 20.3161L31.4629 20.3151L31.4619 20.3161C31.6981 20.3166 31.9248 20.4098 32.0918 20.5768L32.1504 20.6423C32.2805 20.8011 32.3525 21.0005 32.3525 21.2077C32.3525 21.4151 32.2808 21.6151 32.1504 21.7741L32.0918 21.8395C31.9243 22.007 31.6968 22.1003 31.46 22.1003H31.4561C31.0258 22.0895 30.6038 22.2089 30.2441 22.4401L30.0938 22.5466L30.0889 22.5505L30.0879 22.5495C29.4028 23.0373 28.5832 23.3005 27.7422 23.3005C26.901 23.3005 26.0807 23.0374 25.3955 22.5495L25.3916 22.5475C24.9983 22.2491 24.5181 22.0876 24.0244 22.0876C23.5307 22.0876 23.0505 22.2491 22.6572 22.5475L22.6543 22.5495L22.5664 22.4274L22.6533 22.5495C21.9691 23.0375 21.15 23.3005 20.3096 23.3005C19.4692 23.3005 18.65 23.0375 17.9658 22.5495L17.9619 22.5475C17.5693 22.2492 17.0897 22.0877 16.5967 22.0876C16.1035 22.0876 15.6232 22.2491 15.2305 22.5475L15.2275 22.5495L15.1396 22.4274L15.2266 22.5495C14.5423 23.0374 13.7232 23.3005 12.8828 23.3005C12.0423 23.3005 11.2224 23.0375 10.5381 22.5495L10.5342 22.5475V22.5466C10.1417 22.2485 9.66184 22.0876 9.16895 22.0876C8.67591 22.0877 8.19624 22.2492 7.80371 22.5475L7.80078 22.5495L7.71289 22.4274L7.7998 22.5495C7.1156 23.0375 6.29645 23.3005 5.45605 23.3005C4.61565 23.3005 3.79651 23.0375 3.1123 22.5495L3.10742 22.5466C2.7187 22.2461 2.23824 22.0881 1.74707 22.1003L1.74316 22.1013V22.1003C1.53579 22.1003 1.33571 22.0285 1.17676 21.8981L1.11133 21.8395C0.943871 21.6721 0.849609 21.4445 0.849609 21.2077C0.849643 20.9711 0.944093 20.7442 1.11133 20.5768L1.17676 20.5173C1.335 20.3875 1.53388 20.3167 1.74023 20.3161V20.3151L1.74121 20.3161L1.74316 20.3151V20.3161C2.47899 20.3047 3.20087 20.5006 3.82617 20.8806L4.08789 21.0544L4.09082 21.0563L4.01074 21.1618L4.09082 21.0573C4.48337 21.3556 4.96303 21.5173 5.45605 21.5173C5.94906 21.5173 6.42873 21.3556 6.82129 21.0573L6.8252 21.0544L7.08789 20.8815C7.71449 20.5045 8.43374 20.3035 9.16895 20.3034C9.90435 20.3034 10.6242 20.5044 11.251 20.8815L11.5137 21.0544L11.5176 21.0563L11.4375 21.1618L11.5176 21.0573C11.9102 21.3555 12.3898 21.5163 12.8828 21.5163C13.3758 21.5163 13.8554 21.3555 14.248 21.0573L14.252 21.0544L14.5146 20.8815C15.1414 20.5045 15.8613 20.3044 16.5967 20.3044C17.3319 20.3045 18.0511 20.5046 18.6777 20.8815L18.9404 21.0544L18.9443 21.0563L18.8643 21.1618L18.9443 21.0573C19.3369 21.3556 19.8166 21.5163 20.3096 21.5163C20.8026 21.5163 21.2822 21.3555 21.6748 21.0573L21.6787 21.0544L21.9414 20.8815C22.5687 20.5044 23.2886 20.3034 24.0244 20.3034Z" fill="black" stroke="black" stroke-width="0.3"/>
<path d="M27.7451 24.6234C28.9671 24.6234 30.1398 25.1089 31.0039 25.973L31.1611 26.139C31.9264 26.9842 32.3525 28.0862 32.3525 29.2318C32.3524 30.3771 31.9262 31.4785 31.1611 32.3235L31.0039 32.4896C30.1398 33.3537 28.9671 33.8392 27.7451 33.8392H5.45801C4.31239 33.8392 3.21045 33.4121 2.36523 32.6468L2.19922 32.4896C1.33527 31.6256 0.849725 30.4536 0.849609 29.2318C0.849609 28.0097 1.33513 26.837 2.19922 25.973L2.36523 25.8157C3.21044 25.0505 4.31241 24.6234 5.45801 24.6234H27.7451ZM5.45801 26.4095C4.70964 26.4095 3.99109 26.7065 3.46191 27.2357C2.93274 27.7648 2.63574 28.4834 2.63574 29.2318C2.63586 29.9799 2.93288 30.6978 3.46191 31.2269C3.99109 31.756 4.70964 32.053 5.45801 32.053H27.7461L28.0166 32.0403C28.6452 31.9812 29.2383 31.7119 29.6982 31.2718L29.8857 31.0755C30.2976 30.5972 30.538 29.9916 30.5645 29.3558L30.5625 29.0843C30.5278 28.4541 30.2821 27.8509 29.8604 27.3743C29.3915 26.8445 28.7405 26.5133 28.0381 26.4417L23.126 30.6526C22.9642 30.7912 22.7579 30.8665 22.5449 30.8665C22.3851 30.8665 22.229 30.8244 22.0928 30.7444L21.9639 30.6526L17.0137 26.4095H5.45801ZM22.5449 28.7982L25.332 26.4095H19.7578L22.5449 28.7982Z" fill="black" stroke="black" stroke-width="0.3"/>
<path d="M29.9746 14.2223L30.209 14.234C30.7537 14.288 31.2658 14.5291 31.6562 14.9196L31.8145 15.0944C32.161 15.5175 32.3525 16.0494 32.3525 16.6012C32.3525 17.1532 32.1612 17.6857 31.8145 18.109L31.6562 18.2838C31.2102 18.7297 30.6053 18.98 29.9746 18.9801H3.22852C2.6768 18.98 2.14482 18.7885 1.72168 18.442L1.54688 18.2838C1.10077 17.8377 0.849609 17.2321 0.849609 16.6012C0.849681 15.9704 1.10083 15.3656 1.54688 14.9196L1.72168 14.7614C2.14486 14.4147 2.67671 14.2224 3.22852 14.2223H29.9746ZM3.22852 16.0084C3.11058 16.0085 2.99609 16.0435 2.89941 16.108L2.80957 16.1823C2.69844 16.2934 2.63581 16.444 2.63574 16.6012C2.63574 16.7585 2.69837 16.9099 2.80957 17.0211L2.89941 17.0944C2.99614 17.159 3.11048 17.1939 3.22852 17.194H29.9746C30.1316 17.1939 30.2825 17.1321 30.3936 17.0211L30.4678 16.9303C30.5322 16.8336 30.5674 16.7191 30.5674 16.6012C30.5673 16.4833 30.5323 16.3688 30.4678 16.2721L30.3936 16.1823C30.2825 16.0711 30.1317 16.0085 29.9746 16.0084H3.22852Z" fill="black" stroke="black" stroke-width="0.3"/>
<path d="M46.114 18.5938C45.194 18.5938 44.343 18.4251 43.561 18.0878C42.7943 17.7351 42.1733 17.1601 41.698 16.3628C41.238 15.5501 41.008 14.4921 41.008 13.1888C41.008 11.9774 41.2457 10.9654 41.721 10.1528C42.2117 9.32476 42.894 8.70376 43.768 8.28976C44.642 7.86043 45.654 7.64576 46.804 7.64576C47.632 7.64576 48.3987 7.76076 49.104 7.99076C49.8093 8.20543 50.3613 8.44309 50.76 8.70376C51.0513 8.88776 51.2813 9.11009 51.45 9.37076C51.6187 9.61609 51.703 9.93043 51.703 10.3138V17.5128H48.437V10.7048C48.253 10.5974 48.0383 10.5131 47.793 10.4518C47.563 10.3751 47.2717 10.3368 46.919 10.3368C46.1677 10.3368 45.5543 10.5668 45.079 11.0268C44.619 11.4868 44.389 12.2074 44.389 13.1888C44.389 14.2621 44.6113 15.0058 45.056 15.4198C45.5007 15.8338 46.0527 16.0408 46.712 16.0408C47.218 16.0408 47.6397 15.9488 47.977 15.7648C48.3143 15.5808 48.6057 15.3814 48.851 15.1668L48.966 17.8808C48.644 18.0801 48.2453 18.2488 47.77 18.3868C47.31 18.5248 46.758 18.5938 46.114 18.5938ZM48.483 18.9158V16.7768H51.703V19.0308C51.703 20.0888 51.45 20.9551 50.944 21.6298C50.4533 22.3044 49.7787 22.8028 48.92 23.1248C48.0767 23.4468 47.126 23.6078 46.068 23.6078C45.2707 23.6078 44.5653 23.5388 43.952 23.4008C43.3387 23.2628 42.8633 23.0864 42.526 22.8718C42.0047 22.5344 41.744 22.0591 41.744 21.4458C41.744 21.1238 41.8053 20.8324 41.928 20.5718C42.066 20.3264 42.227 20.1424 42.411 20.0198C42.825 20.2651 43.3157 20.4721 43.883 20.6408C44.4503 20.8248 45.0483 20.9168 45.677 20.9168C46.5357 20.9168 47.218 20.7558 47.724 20.4338C48.23 20.1271 48.483 19.6211 48.483 18.9158ZM54.3622 14.7298V13.0738H57.7432V14.7068C57.7432 15.4121 57.9272 15.9258 58.2952 16.2478C58.6632 16.5544 59.1769 16.7078 59.8362 16.7078C60.2502 16.7078 60.5952 16.6694 60.8712 16.5928C61.1625 16.5161 61.3772 16.4318 61.5152 16.3398V13.0738H64.8962V16.7538C64.8962 17.1218 64.8272 17.4361 64.6892 17.6968C64.5512 17.9574 64.3212 18.1874 63.9992 18.3868C63.5085 18.6934 62.9029 18.9311 62.1822 19.0998C61.4769 19.2838 60.6872 19.3758 59.8132 19.3758C58.7245 19.3758 57.7662 19.2148 56.9382 18.8928C56.1255 18.5708 55.4892 18.0724 55.0292 17.3978C54.5845 16.7078 54.3622 15.8184 54.3622 14.7298ZM64.8962 14.1088H61.5152V8.03676C61.6532 7.99076 61.8602 7.94476 62.1362 7.89876C62.4122 7.85276 62.7112 7.82976 63.0332 7.82976C63.6925 7.82976 64.1679 7.94476 64.4592 8.17476C64.7505 8.38943 64.8962 8.81109 64.8962 9.43976V14.1088ZM57.7432 14.1088H54.3622V8.03676C54.5002 7.99076 54.7072 7.94476 54.9832 7.89876C55.2592 7.85276 55.5582 7.82976 55.8802 7.82976C56.5395 7.82976 57.0149 7.94476 57.3062 8.17476C57.5975 8.38943 57.7432 8.81109 57.7432 9.43976V14.1088ZM76.5162 15.8108C76.5162 16.9301 76.0946 17.8118 75.2512 18.4558C74.4079 19.0844 73.1812 19.3988 71.5712 19.3988C70.3139 19.3988 69.2789 19.2148 68.4662 18.8468C67.6536 18.4634 67.2472 17.9191 67.2472 17.2138C67.2472 16.8918 67.3162 16.6158 67.4542 16.3858C67.5922 16.1404 67.7686 15.9488 67.9832 15.8108C68.4126 16.0714 68.9109 16.3014 69.4782 16.5008C70.0609 16.7001 70.7202 16.7998 71.4562 16.7998C72.5909 16.7998 73.1582 16.4778 73.1582 15.8338C73.1582 15.5578 73.0509 15.3431 72.8362 15.1898C72.6369 15.0211 72.3149 14.8908 71.8702 14.7988L70.8582 14.5688C69.6469 14.3234 68.7346 13.9324 68.1212 13.3958C67.5232 12.8438 67.2242 12.0924 67.2242 11.1418C67.2242 10.0684 67.6536 9.21743 68.5122 8.58876C69.3862 7.96009 70.5592 7.64576 72.0312 7.64576C72.7672 7.64576 73.4342 7.72243 74.0322 7.87576C74.6302 8.01376 75.1056 8.22843 75.4582 8.51976C75.8109 8.81109 75.9872 9.17909 75.9872 9.62376C75.9872 9.91509 75.9259 10.1834 75.8032 10.4288C75.6806 10.6588 75.5272 10.8428 75.3432 10.9808C75.1592 10.8734 74.8986 10.7661 74.5612 10.6588C74.2239 10.5361 73.8482 10.4364 73.4342 10.3598C73.0356 10.2678 72.6599 10.2218 72.3072 10.2218C71.7552 10.2218 71.3182 10.2984 70.9962 10.4518C70.6896 10.6051 70.5362 10.8351 70.5362 11.1418C70.5362 11.3411 70.6206 11.5174 70.7892 11.6708C70.9732 11.8088 71.2952 11.9314 71.7552 12.0388L72.6752 12.2458C74.0399 12.5678 75.0212 13.0201 75.6192 13.6028C76.2172 14.1701 76.5162 14.9061 76.5162 15.8108ZM78.6885 12.9588H82.0465V15.4198C82.0465 15.8644 82.1845 16.1864 82.4605 16.3858C82.7365 16.5698 83.1198 16.6618 83.6105 16.6618C83.8558 16.6618 84.1088 16.6388 84.3695 16.5928C84.6301 16.5468 84.8601 16.4854 85.0595 16.4088C85.1821 16.5468 85.2895 16.7154 85.3815 16.9148C85.4735 17.0988 85.5195 17.3211 85.5195 17.5818C85.5195 18.1031 85.3048 18.5324 84.8755 18.8698C84.4615 19.1918 83.7485 19.3528 82.7365 19.3528C81.4638 19.3528 80.4671 19.0691 79.7465 18.5018C79.0411 17.9191 78.6885 16.9684 78.6885 15.6498V12.9588ZM80.8045 10.8658V8.24376H85.2435C85.3201 8.36643 85.3968 8.54276 85.4735 8.77276C85.5501 9.00276 85.5885 9.25576 85.5885 9.53176C85.5885 9.99176 85.4811 10.3291 85.2665 10.5438C85.0671 10.7584 84.7911 10.8658 84.4385 10.8658H80.8045ZM82.0465 13.5338H78.6885V5.27676C78.8265 5.23076 79.0335 5.18476 79.3095 5.13876C79.5855 5.07743 79.8768 5.04676 80.1835 5.04676C80.8275 5.04676 81.2951 5.16176 81.5865 5.39176C81.8931 5.62176 82.0465 6.03576 82.0465 6.63376V13.5338ZM98.6016 13.5108C98.6016 14.7068 98.364 15.7494 97.8886 16.6388C97.4133 17.5128 96.7386 18.1874 95.8646 18.6628C94.9906 19.1381 93.9633 19.3758 92.7826 19.3758C91.602 19.3758 90.5746 19.1458 89.7006 18.6858C88.8266 18.2104 88.152 17.5358 87.6766 16.6618C87.2013 15.7724 86.9636 14.7221 86.9636 13.5108C86.9636 12.3148 87.2013 11.2798 87.6766 10.4058C88.1673 9.53176 88.8496 8.85709 89.7236 8.38176C90.613 7.89109 91.6326 7.64576 92.7826 7.64576C93.948 7.64576 94.9676 7.89109 95.8416 8.38176C96.7156 8.85709 97.3903 9.53943 97.8656 10.4288C98.3563 11.3028 98.6016 12.3301 98.6016 13.5108ZM92.7826 10.3368C92.062 10.3368 91.487 10.6128 91.0576 11.1648C90.6436 11.7168 90.4366 12.4988 90.4366 13.5108C90.4366 14.5381 90.6436 15.3278 91.0576 15.8798C91.4716 16.4318 92.0466 16.7078 92.7826 16.7078C93.534 16.7078 94.109 16.4318 94.5076 15.8798C94.9216 15.3124 95.1286 14.5228 95.1286 13.5108C95.1286 12.5141 94.9216 11.7398 94.5076 11.1878C94.0936 10.6204 93.5186 10.3368 92.7826 10.3368ZM109.713 15.8108C109.713 16.9301 109.292 17.8118 108.448 18.4558C107.605 19.0844 106.378 19.3988 104.768 19.3988C103.511 19.3988 102.476 19.2148 101.663 18.8468C100.851 18.4634 100.444 17.9191 100.444 17.2138C100.444 16.8918 100.513 16.6158 100.651 16.3858C100.789 16.1404 100.966 15.9488 101.18 15.8108C101.61 16.0714 102.108 16.3014 102.675 16.5008C103.258 16.7001 103.917 16.7998 104.653 16.7998C105.788 16.7998 106.355 16.4778 106.355 15.8338C106.355 15.5578 106.248 15.3431 106.033 15.1898C105.834 15.0211 105.512 14.8908 105.067 14.7988L104.055 14.5688C102.844 14.3234 101.932 13.9324 101.318 13.3958C100.72 12.8438 100.421 12.0924 100.421 11.1418C100.421 10.0684 100.851 9.21743 101.709 8.58876C102.583 7.96009 103.756 7.64576 105.228 7.64576C105.964 7.64576 106.631 7.72243 107.229 7.87576C107.827 8.01376 108.303 8.22843 108.655 8.51976C109.008 8.81109 109.184 9.17909 109.184 9.62376C109.184 9.91509 109.123 10.1834 109 10.4288C108.878 10.6588 108.724 10.8428 108.54 10.9808C108.356 10.8734 108.096 10.7661 107.758 10.6588C107.421 10.5361 107.045 10.4364 106.631 10.3598C106.233 10.2678 105.857 10.2218 105.504 10.2218C104.952 10.2218 104.515 10.2984 104.193 10.4518C103.887 10.6051 103.733 10.8351 103.733 11.1418C103.733 11.3411 103.818 11.5174 103.986 11.6708C104.17 11.8088 104.492 11.9314 104.952 12.0388L105.872 12.2458C107.237 12.5678 108.218 13.0201 108.816 13.6028C109.414 14.1701 109.713 14.9061 109.713 15.8108ZM116.595 19.3758C115.031 19.3758 113.782 19.0768 112.846 18.4788C111.926 17.8654 111.466 16.9531 111.466 15.7418C111.466 14.6991 111.788 13.9018 112.432 13.3498C113.076 12.7824 114.035 12.4374 115.307 12.3148L118.389 11.9928V11.7168C118.389 11.1801 118.182 10.7968 117.768 10.5668C117.354 10.3368 116.779 10.2218 116.043 10.2218C115.461 10.2218 114.886 10.2908 114.318 10.4288C113.751 10.5668 113.245 10.7354 112.8 10.9348C112.616 10.7968 112.463 10.6051 112.34 10.3598C112.218 10.1144 112.156 9.85376 112.156 9.57776C112.156 8.93376 112.501 8.46609 113.191 8.17476C113.636 8.00609 114.15 7.87576 114.732 7.78376C115.33 7.69176 115.905 7.64576 116.457 7.64576C118.037 7.64576 119.302 7.98309 120.252 8.65776C121.203 9.31709 121.678 10.3444 121.678 11.7398V16.9608C121.678 17.3441 121.579 17.6584 121.379 17.9038C121.18 18.1338 120.935 18.3331 120.643 18.5018C120.183 18.7778 119.608 18.9924 118.918 19.1458C118.244 19.2991 117.469 19.3758 116.595 19.3758ZM116.595 16.8688C116.948 16.8688 117.293 16.8304 117.63 16.7538C117.983 16.6771 118.236 16.5928 118.389 16.5008V14.2928L116.434 14.4538C115.913 14.4998 115.499 14.6148 115.192 14.7988C114.901 14.9828 114.755 15.2588 114.755 15.6268C114.755 16.0101 114.901 16.3168 115.192 16.5468C115.484 16.7614 115.951 16.8688 116.595 16.8688ZM114.847 2.95376C115.277 2.95376 115.683 3.01509 116.066 3.13776C116.465 3.24509 116.833 3.36009 117.17 3.48276C117.508 3.59009 117.791 3.64376 118.021 3.64376C118.343 3.64376 118.589 3.55176 118.757 3.36776C118.926 3.16843 119.049 2.98443 119.125 2.81576H119.24C119.67 2.81576 120.045 2.96143 120.367 3.25276C120.689 3.54409 120.85 3.93509 120.85 4.42576C120.85 5.03909 120.651 5.50676 120.252 5.82876C119.854 6.13543 119.348 6.28876 118.734 6.28876C118.259 6.28876 117.83 6.22743 117.446 6.10476C117.063 5.98209 116.71 5.86709 116.388 5.75976C116.082 5.63709 115.798 5.57576 115.537 5.57576C115.215 5.57576 114.97 5.66776 114.801 5.85176C114.648 6.03576 114.525 6.21976 114.433 6.40376H114.364C113.92 6.40376 113.536 6.26576 113.214 5.98976C112.892 5.69843 112.731 5.30743 112.731 4.81676C112.731 4.38743 112.831 4.03476 113.03 3.75876C113.245 3.48276 113.513 3.28343 113.835 3.16076C114.173 3.02276 114.51 2.95376 114.847 2.95376ZM135.46 13.5108C135.46 14.7068 135.222 15.7494 134.747 16.6388C134.272 17.5128 133.597 18.1874 132.723 18.6628C131.849 19.1381 130.822 19.3758 129.641 19.3758C128.46 19.3758 127.433 19.1458 126.559 18.6858C125.685 18.2104 125.01 17.5358 124.535 16.6618C124.06 15.7724 123.822 14.7221 123.822 13.5108C123.822 12.3148 124.06 11.2798 124.535 10.4058C125.026 9.53176 125.708 8.85709 126.582 8.38176C127.471 7.89109 128.491 7.64576 129.641 7.64576C130.806 7.64576 131.826 7.89109 132.7 8.38176C133.574 8.85709 134.249 9.53943 134.724 10.4288C135.215 11.3028 135.46 12.3301 135.46 13.5108ZM129.641 10.3368C128.92 10.3368 128.345 10.6128 127.916 11.1648C127.502 11.7168 127.295 12.4988 127.295 13.5108C127.295 14.5381 127.502 15.3278 127.916 15.8798C128.33 16.4318 128.905 16.7078 129.641 16.7078C130.392 16.7078 130.967 16.4318 131.366 15.8798C131.78 15.3124 131.987 14.5228 131.987 13.5108C131.987 12.5141 131.78 11.7398 131.366 11.1878C130.952 10.6204 130.377 10.3368 129.641 10.3368ZM41.675 35.9588L45.056 36.0278V42.0078C44.918 42.0384 44.711 42.0768 44.435 42.1228C44.159 42.1688 43.86 42.1918 43.538 42.1918C42.894 42.1918 42.4187 42.0768 42.112 41.8468C41.8207 41.6168 41.675 41.2028 41.675 40.6048V35.9588ZM45.056 37.7758L41.675 37.7068V27.0578C41.813 27.0118 42.02 26.9658 42.296 26.9198C42.572 26.8738 42.871 26.8508 43.193 26.8508C43.8523 26.8508 44.3277 26.9658 44.619 27.1958C44.9103 27.4104 45.056 27.8244 45.056 28.4378V37.7758ZM52.402 42.3758C50.838 42.3758 49.5883 42.0768 48.653 41.4788C47.733 40.8654 47.273 39.9531 47.273 38.7418C47.273 37.6991 47.595 36.9018 48.239 36.3498C48.883 35.7824 49.8413 35.4374 51.114 35.3148L54.196 34.9928V34.7168C54.196 34.1801 53.989 33.7968 53.575 33.5668C53.161 33.3368 52.586 33.2218 51.85 33.2218C51.2673 33.2218 50.6923 33.2908 50.125 33.4288C49.5577 33.5668 49.0517 33.7354 48.607 33.9348C48.423 33.7968 48.2697 33.6051 48.147 33.3598C48.0243 33.1144 47.963 32.8538 47.963 32.5778C47.963 31.9338 48.308 31.4661 48.998 31.1748C49.4427 31.0061 49.9563 30.8758 50.539 30.7838C51.137 30.6918 51.712 30.6458 52.264 30.6458C53.8433 30.6458 55.1083 30.9831 56.059 31.6578C57.0097 32.3171 57.485 33.3444 57.485 34.7398V39.9608C57.485 40.3441 57.3853 40.6584 57.186 40.9038C56.9867 41.1338 56.7413 41.3331 56.45 41.5018C55.99 41.7778 55.415 41.9924 54.725 42.1458C54.0503 42.2991 53.276 42.3758 52.402 42.3758ZM52.402 39.8688C52.7547 39.8688 53.0997 39.8304 53.437 39.7538C53.7897 39.6771 54.0427 39.5928 54.196 39.5008V37.2928L52.241 37.4538C51.7197 37.4998 51.3057 37.6148 50.999 37.7988C50.7077 37.9828 50.562 38.2588 50.562 38.6268C50.562 39.0101 50.7077 39.3168 50.999 39.5468C51.2903 39.7614 51.758 39.8688 52.402 39.8688ZM70.6687 34.8778V37.0398H67.2877V34.9928C67.2877 34.4101 67.119 33.9884 66.7817 33.7278C66.4443 33.4671 66.0073 33.3368 65.4707 33.3368C65.0873 33.3368 64.7347 33.3828 64.4127 33.4748C64.0907 33.5668 63.7917 33.6818 63.5157 33.8198V37.0398H60.1347V33.4518C60.1347 33.0684 60.2113 32.7541 60.3647 32.5088C60.5333 32.2481 60.7787 32.0181 61.1007 31.8188C61.5913 31.4814 62.2123 31.2054 62.9637 30.9908C63.7303 30.7608 64.5737 30.6458 65.4937 30.6458C67.1497 30.6458 68.4223 31.0138 69.3117 31.7498C70.2163 32.4704 70.6687 33.5131 70.6687 34.8778ZM60.1347 35.9818H63.5157V42.0078C63.3777 42.0384 63.1707 42.0768 62.8947 42.1228C62.6187 42.1688 62.3197 42.1918 61.9977 42.1918C61.3537 42.1918 60.8783 42.0768 60.5717 41.8468C60.2803 41.6168 60.1347 41.2028 60.1347 40.6048V35.9818ZM67.2877 35.9818H70.6687V42.0078C70.5307 42.0384 70.3237 42.0768 70.0477 42.1228C69.7717 42.1688 69.4727 42.1918 69.1507 42.1918C68.5067 42.1918 68.0313 42.0768 67.7247 41.8468C67.4333 41.6168 67.2877 41.2028 67.2877 40.6048V35.9818ZM79.3212 33.3598C78.4778 33.3598 77.7572 33.6358 77.1592 34.1878C76.5765 34.7244 76.2852 35.5141 76.2852 36.5568C76.2852 37.5841 76.5688 38.3584 77.1362 38.8798C77.7035 39.4011 78.4242 39.6618 79.2982 39.6618C79.8042 39.6618 80.2412 39.6004 80.6092 39.4778C80.9925 39.3398 81.3222 39.2018 81.5982 39.0638C81.8588 39.2478 82.0582 39.4471 82.1962 39.6618C82.3342 39.8764 82.4032 40.1448 82.4032 40.4668C82.4032 41.0341 82.0965 41.4941 81.4832 41.8468C80.8698 42.1841 80.0188 42.3528 78.9302 42.3528C77.7188 42.3528 76.6532 42.1381 75.7332 41.7088C74.8132 41.2794 74.1002 40.6278 73.5942 39.7538C73.1035 38.8798 72.8582 37.8141 72.8582 36.5568C72.8582 35.2228 73.1265 34.1264 73.6632 33.2678C74.2152 32.3938 74.9435 31.7421 75.8482 31.3128C76.7682 30.8681 77.7648 30.6458 78.8382 30.6458C79.8962 30.6458 80.7242 30.8374 81.3222 31.2208C81.9355 31.6041 82.2422 32.0794 82.2422 32.6468C82.2422 32.9228 82.1732 33.1758 82.0352 33.4058C81.9125 33.6204 81.7668 33.8044 81.5982 33.9578C81.3068 33.8044 80.9695 33.6664 80.5862 33.5438C80.2182 33.4211 79.7965 33.3598 79.3212 33.3598ZM95.1297 37.3388H91.7487V35.2918C91.7487 34.5864 91.5647 34.0881 91.1967 33.7968C90.8287 33.4901 90.3687 33.3368 89.8167 33.3368C89.326 33.3368 88.8814 33.4288 88.4827 33.6128C88.0994 33.7968 87.762 34.0038 87.4707 34.2338L87.4017 31.4968C87.7544 31.2821 88.1914 31.0904 88.7127 30.9218C89.234 30.7378 89.809 30.6458 90.4377 30.6458C91.879 30.6458 93.0214 31.0214 93.8647 31.7728C94.708 32.5088 95.1297 33.6204 95.1297 35.1078V37.3388ZM84.5957 35.9588H87.9767V42.0078C87.8387 42.0384 87.6317 42.0768 87.3557 42.1228C87.0797 42.1688 86.7807 42.1918 86.4587 42.1918C85.8147 42.1918 85.3394 42.0768 85.0327 41.8468C84.7414 41.6168 84.5957 41.2028 84.5957 40.6048V35.9588ZM91.7487 35.9588H95.1297V42.0078C94.9917 42.0384 94.7847 42.0768 94.5087 42.1228C94.2327 42.1688 93.9337 42.1918 93.6117 42.1918C92.9677 42.1918 92.4924 42.0768 92.1857 41.8468C91.8944 41.6168 91.7487 41.2028 91.7487 40.6048V35.9588ZM87.9767 37.7068H84.5957V27.0578C84.7337 27.0118 84.9407 26.9658 85.2167 26.9198C85.4927 26.8738 85.7917 26.8508 86.1137 26.8508C86.773 26.8508 87.2484 26.9658 87.5397 27.1958C87.831 27.4104 87.9767 27.8244 87.9767 28.4378V37.7068ZM99.4111 38.1208L99.2731 35.8208L105 34.9238C104.954 34.4791 104.762 34.0804 104.425 33.7278C104.088 33.3598 103.589 33.1758 102.93 33.1758C102.225 33.1758 101.642 33.4134 101.182 33.8888C100.722 34.3488 100.484 35.0158 100.469 35.8898L100.561 37.4538C100.714 38.2971 101.082 38.9028 101.665 39.2708C102.248 39.6234 102.938 39.7998 103.735 39.7998C104.379 39.7998 104.985 39.7154 105.552 39.5468C106.119 39.3628 106.579 39.1634 106.932 38.9488C107.147 39.0868 107.331 39.2784 107.484 39.5238C107.637 39.7691 107.714 40.0298 107.714 40.3058C107.714 40.7658 107.53 41.1491 107.162 41.4558C106.809 41.7624 106.311 41.9924 105.667 42.1458C105.038 42.2991 104.318 42.3758 103.505 42.3758C102.324 42.3758 101.266 42.1534 100.331 41.7088C99.3958 41.2641 98.6598 40.5971 98.1231 39.7078C97.5864 38.8184 97.3181 37.7068 97.3181 36.3728C97.3181 35.3914 97.4714 34.5404 97.7781 33.8198C98.0848 33.0991 98.4988 32.5088 99.0201 32.0488C99.5568 31.5734 100.155 31.2208 100.814 30.9908C101.489 30.7608 102.186 30.6458 102.907 30.6458C103.965 30.6458 104.885 30.8604 105.667 31.2898C106.464 31.7038 107.085 32.2711 107.53 32.9918C107.975 33.7124 108.197 34.5481 108.197 35.4988C108.197 35.9741 108.067 36.3344 107.806 36.5798C107.545 36.8098 107.185 36.9631 106.725 37.0398L99.4111 38.1208ZM119.259 38.8108C119.259 39.9301 118.838 40.8118 117.994 41.4558C117.151 42.0844 115.924 42.3988 114.314 42.3988C113.057 42.3988 112.022 42.2148 111.209 41.8468C110.397 41.4634 109.99 40.9191 109.99 40.2138C109.99 39.8918 110.059 39.6158 110.197 39.3858C110.335 39.1404 110.512 38.9488 110.726 38.8108C111.156 39.0714 111.654 39.3014 112.221 39.5008C112.804 39.7001 113.463 39.7998 114.199 39.7998C115.334 39.7998 115.901 39.4778 115.901 38.8338C115.901 38.5578 115.794 38.3431 115.579 38.1898C115.38 38.0211 115.058 37.8908 114.613 37.7988L113.601 37.5688C112.39 37.3234 111.478 36.9324 110.864 36.3958C110.266 35.8438 109.967 35.0924 109.967 34.1418C109.967 33.0684 110.397 32.2174 111.255 31.5888C112.129 30.9601 113.302 30.6458 114.774 30.6458C115.51 30.6458 116.177 30.7224 116.775 30.8758C117.373 31.0138 117.849 31.2284 118.201 31.5198C118.554 31.8111 118.73 32.1791 118.73 32.6238C118.73 32.9151 118.669 33.1834 118.546 33.4288C118.424 33.6588 118.27 33.8428 118.086 33.9808C117.902 33.8734 117.642 33.7661 117.304 33.6588C116.967 33.5361 116.591 33.4364 116.177 33.3598C115.779 33.2678 115.403 33.2218 115.05 33.2218C114.498 33.2218 114.061 33.2984 113.739 33.4518C113.433 33.6051 113.279 33.8351 113.279 34.1418C113.279 34.3411 113.364 34.5174 113.532 34.6708C113.716 34.8088 114.038 34.9314 114.498 35.0388L115.418 35.2458C116.783 35.5678 117.764 36.0201 118.362 36.6028C118.96 37.1701 119.259 37.9061 119.259 38.8108Z" fill="black"/>
</svg>
