<svg width="25" height="24" viewBox="0 0 25 24" fill="none" xmlns="http://www.w3.org/2000/svg">
<g clip-path="url(#clip0_41_1485)">
<path d="M8.36084 5.93161H16.3608V4.01919C16.3608 3.76558 16.2555 3.52237 16.0679 3.34304C15.8804 3.16372 15.6261 3.06297 15.3608 3.06297H9.36084C9.09562 3.06297 8.84127 3.16372 8.65373 3.34304C8.4662 3.52237 8.36084 3.76558 8.36084 4.01919V5.93161Z" stroke="#E8590C" stroke-width="2" stroke-linecap="round" stroke-linejoin="round"/>
<path d="M16.3608 5.93163L17.4548 7.61361C18.0469 8.52329 18.3608 9.57333 18.3608 10.6448V18.3624C18.3608 18.8696 18.1501 19.356 17.7751 19.7147C17.4 20.0733 16.8913 20.2748 16.3608 20.2748H8.36084C7.83041 20.2748 7.3217 20.0733 6.94663 19.7147C6.57155 19.356 6.36084 18.8696 6.36084 18.3624V10.6448C6.36091 9.57333 6.67476 8.52329 7.26684 7.61361L8.36084 5.93163" stroke="#E8590C" stroke-width="2" stroke-linecap="round" stroke-linejoin="round"/>
<path d="M10.3608 15.4938C10.3608 16.001 10.5716 16.4874 10.9466 16.846C11.3217 17.2047 11.8304 17.4062 12.3608 17.4062C12.8913 17.4062 13.4 17.2047 13.7751 16.846C14.1501 16.4874 14.3608 16.001 14.3608 15.4938C14.3608 14.9865 14.1501 14.5001 13.7751 14.1415C13.4 13.7828 12.8913 13.5813 12.3608 13.5813C11.8304 13.5813 11.3217 13.7828 10.9466 14.1415C10.5716 14.5001 10.3608 14.9865 10.3608 15.4938Z" stroke="#E8590C" stroke-width="2" stroke-linecap="round" stroke-linejoin="round"/>
<path d="M10.3608 9.75647H14.3608" stroke="#E8590C" stroke-width="2" stroke-linecap="round" stroke-linejoin="round"/>
</g>
<defs>
<clipPath id="clip0_41_1485">
<rect width="24" height="22.9491" fill="white" transform="translate(0.36084 0.194336)"/>
</clipPath>
</defs>
</svg>
