<svg width="15" height="20" viewBox="0 0 15 20" fill="none" xmlns="http://www.w3.org/2000/svg">
<path d="M7.23817 14.8529H5.75379C5.59781 14.8552 5.44899 14.9188 5.3395 15.0299C5.23 15.141 5.16862 15.2907 5.16862 15.4467C5.16862 15.6027 5.23001 15.7524 5.33951 15.8635C5.44902 15.9746 5.59784 16.0382 5.75382 16.0404H7.23817C7.39415 16.0382 7.54297 15.9746 7.65247 15.8635C7.76197 15.7524 7.82335 15.6027 7.82335 15.4467C7.82335 15.2907 7.76197 15.141 7.65247 15.0299C7.54297 14.9188 7.39415 14.8552 7.23817 14.8529Z" fill="#E8590C"/>
<path d="M9.62935 14.8529C9.47329 14.8551 9.32435 14.9186 9.21475 15.0297C9.10516 15.1408 9.04371 15.2906 9.04371 15.4467C9.04372 15.6028 9.10517 15.7526 9.21477 15.8637C9.32437 15.9748 9.47331 16.0383 9.62937 16.0404C9.78543 16.0383 9.93437 15.9748 10.044 15.8637C10.1536 15.7526 10.215 15.6028 10.215 15.4467C10.215 15.2906 10.1536 15.1408 10.044 15.0297C9.93435 14.9186 9.78541 14.8551 9.62935 14.8529Z" fill="#E8590C"/>
<path d="M13.9197 8.69063C13.7783 8.59246 13.6114 8.53738 13.4393 8.53203V6.60642C13.4351 6.38605 13.3835 6.16917 13.288 5.97054C13.1924 5.77191 13.0552 5.5962 12.8857 5.45535C12.7162 5.3145 12.5183 5.21182 12.3055 5.15431C12.0927 5.09679 11.8701 5.08579 11.6527 5.12204L11.7945 4.32361C11.8613 3.93593 11.7724 3.53754 11.5471 3.21508C11.3217 2.89262 10.9782 2.67216 10.5912 2.60166L9.71375 2.44741C9.47536 2.40469 9.23012 2.42132 8.99968 2.49584C8.76924 2.57035 8.5607 2.70045 8.39245 2.87466V2.15329C8.39199 1.75975 8.23545 1.38246 7.95718 1.10419C7.6789 0.825915 7.30162 0.669377 6.90808 0.668915H6.01745C5.62391 0.669377 5.24662 0.825914 4.96835 1.10419C4.69008 1.38246 4.53354 1.75975 4.53308 2.15329V3.96456C4.1382 3.93089 3.74165 3.92087 3.34558 3.93454C2.95204 3.93501 2.57475 4.09155 2.29648 4.36983C2.0182 4.6481 1.86167 5.02539 1.8612 5.41893V8.53197C1.73471 8.53644 1.61062 8.56776 1.49716 8.62385C1.3837 8.67993 1.28345 8.7595 1.20309 8.85727C1.12272 8.95505 1.06406 9.0688 1.03099 9.19097C0.997934 9.31314 0.991229 9.44095 1.01132 9.56591L2.61151 19.1727C2.63461 19.3114 2.70614 19.4373 2.81337 19.5282C2.92061 19.619 3.05659 19.6689 3.19714 19.6689H12.1034C12.2439 19.6689 12.3799 19.619 12.4872 19.5282C12.5944 19.4373 12.6659 19.3114 12.689 19.1727L14.2892 9.56589C14.318 9.39993 14.2984 9.2292 14.2329 9.07403C14.1674 8.91885 14.0587 8.78577 13.9197 8.69063ZM12.2518 6.60642V8.96302C11.7674 9.12341 11.2711 9.24526 10.7675 9.32745V6.60642C10.7682 6.5279 10.7997 6.45281 10.8552 6.39729C10.9107 6.34177 10.9858 6.31026 11.0643 6.30954H11.955C12.0337 6.30964 12.1091 6.34095 12.1648 6.39661C12.2204 6.45226 12.2517 6.52771 12.2518 6.60642ZM9.16407 3.85742C9.17039 3.81892 9.18433 3.78208 9.20507 3.74904C9.22582 3.716 9.25295 3.68744 9.28489 3.66502C9.31682 3.64261 9.3529 3.6268 9.39102 3.61852C9.42915 3.61023 9.46854 3.60965 9.50689 3.61679L10.3843 3.77103C10.4619 3.78493 10.5308 3.82902 10.576 3.89362C10.6211 3.95823 10.6388 4.03809 10.6252 4.11573L10.4203 5.27004C10.2195 5.3691 10.0434 5.51174 9.90478 5.68754C9.76616 5.86334 9.66853 6.06787 9.61902 6.2862C9.54463 6.3064 9.59246 9.33517 9.57995 9.47724C9.10777 9.52965 8.63318 9.55746 8.15811 9.56057C8.30688 8.71689 9.00131 4.77988 9.16407 3.85742ZM5.72058 2.15329C5.72068 2.07459 5.75199 1.99913 5.80765 1.94348C5.8633 1.88783 5.93875 1.85652 6.01746 1.85641H6.90808C6.98678 1.85652 7.06224 1.88783 7.11789 1.94348C7.17354 1.99913 7.20485 2.07459 7.20496 2.15329V8.12746L6.9532 9.55467C6.54127 9.54991 6.12986 9.52403 5.72058 9.47714V2.15329ZM3.34558 5.12204H4.23621C4.31491 5.12214 4.39036 5.15345 4.44601 5.20911C4.50167 5.26476 4.53298 5.34021 4.53308 5.41892V9.32781C4.02938 9.24629 3.53301 9.12462 3.04871 8.96397V5.41892C3.04881 5.34021 3.08012 5.26476 3.13577 5.20911C3.19142 5.15345 3.26688 5.12214 3.34558 5.12204ZM11.6004 18.4814H3.70015L2.27796 9.94307C5.26492 11.0549 10.0414 11.0543 13.0226 9.94292L11.6004 18.4814Z" fill="#E8590C"/>
<path d="M7.23817 14.8529H5.75379C5.59781 14.8552 5.44899 14.9188 5.3395 15.0299C5.23 15.141 5.16862 15.2907 5.16862 15.4467C5.16862 15.6027 5.23001 15.7524 5.33951 15.8635C5.44902 15.9746 5.59784 16.0382 5.75382 16.0404H7.23817C7.39415 16.0382 7.54297 15.9746 7.65247 15.8635C7.76197 15.7524 7.82335 15.6027 7.82335 15.4467C7.82335 15.2907 7.76197 15.141 7.65247 15.0299C7.54297 14.9188 7.39415 14.8552 7.23817 14.8529Z" stroke="#E8590C" stroke-width="0.6"/>
<path d="M9.62935 14.8529C9.47329 14.8551 9.32435 14.9186 9.21475 15.0297C9.10516 15.1408 9.04371 15.2906 9.04371 15.4467C9.04372 15.6028 9.10517 15.7526 9.21477 15.8637C9.32437 15.9748 9.47331 16.0383 9.62937 16.0404C9.78543 16.0383 9.93437 15.9748 10.044 15.8637C10.1536 15.7526 10.215 15.6028 10.215 15.4467C10.215 15.2906 10.1536 15.1408 10.044 15.0297C9.93435 14.9186 9.78541 14.8551 9.62935 14.8529Z" stroke="#E8590C" stroke-width="0.6"/>
<path d="M13.9197 8.69063C13.7783 8.59246 13.6114 8.53738 13.4393 8.53203V6.60642C13.4351 6.38605 13.3835 6.16917 13.288 5.97054C13.1924 5.77191 13.0552 5.5962 12.8857 5.45535C12.7162 5.3145 12.5183 5.21182 12.3055 5.15431C12.0927 5.09679 11.8701 5.08579 11.6527 5.12204L11.7945 4.32361C11.8613 3.93593 11.7724 3.53754 11.5471 3.21508C11.3217 2.89262 10.9782 2.67216 10.5912 2.60166L9.71375 2.44741C9.47536 2.40469 9.23012 2.42132 8.99968 2.49584C8.76924 2.57035 8.5607 2.70045 8.39245 2.87466V2.15329C8.39199 1.75975 8.23545 1.38246 7.95718 1.10419C7.6789 0.825915 7.30162 0.669377 6.90808 0.668915H6.01745C5.62391 0.669377 5.24662 0.825914 4.96835 1.10419C4.69008 1.38246 4.53354 1.75975 4.53308 2.15329V3.96456C4.1382 3.93089 3.74165 3.92087 3.34558 3.93454C2.95204 3.93501 2.57475 4.09155 2.29648 4.36983C2.0182 4.6481 1.86167 5.02539 1.8612 5.41893V8.53197C1.73471 8.53644 1.61062 8.56776 1.49716 8.62385C1.3837 8.67993 1.28345 8.7595 1.20309 8.85727C1.12272 8.95505 1.06406 9.0688 1.03099 9.19097C0.997934 9.31314 0.991229 9.44095 1.01132 9.56591L2.61151 19.1727C2.63461 19.3114 2.70614 19.4373 2.81337 19.5282C2.92061 19.619 3.05659 19.6689 3.19714 19.6689H12.1034C12.2439 19.6689 12.3799 19.619 12.4872 19.5282C12.5944 19.4373 12.6659 19.3114 12.689 19.1727L14.2892 9.56589C14.318 9.39993 14.2984 9.2292 14.2329 9.07403C14.1674 8.91885 14.0587 8.78577 13.9197 8.69063ZM12.2518 6.60642V8.96302C11.7674 9.12341 11.2711 9.24526 10.7675 9.32745V6.60642C10.7682 6.5279 10.7997 6.45281 10.8552 6.39729C10.9107 6.34177 10.9858 6.31026 11.0643 6.30954H11.955C12.0337 6.30964 12.1091 6.34095 12.1648 6.39661C12.2204 6.45226 12.2517 6.52771 12.2518 6.60642ZM9.16407 3.85742C9.17039 3.81892 9.18433 3.78208 9.20507 3.74904C9.22582 3.716 9.25295 3.68744 9.28489 3.66502C9.31682 3.64261 9.3529 3.6268 9.39102 3.61852C9.42915 3.61023 9.46854 3.60965 9.50689 3.61679L10.3843 3.77103C10.4619 3.78493 10.5308 3.82902 10.576 3.89362C10.6211 3.95823 10.6388 4.03809 10.6252 4.11573L10.4203 5.27004C10.2195 5.3691 10.0434 5.51174 9.90478 5.68754C9.76616 5.86334 9.66853 6.06787 9.61902 6.2862C9.54463 6.3064 9.59246 9.33517 9.57995 9.47724C9.10777 9.52965 8.63318 9.55746 8.15811 9.56057C8.30688 8.71689 9.00131 4.77988 9.16407 3.85742ZM5.72058 2.15329C5.72068 2.07459 5.75199 1.99913 5.80765 1.94348C5.8633 1.88783 5.93875 1.85652 6.01746 1.85641H6.90808C6.98678 1.85652 7.06224 1.88783 7.11789 1.94348C7.17354 1.99913 7.20485 2.07459 7.20496 2.15329V8.12746L6.9532 9.55467C6.54127 9.54991 6.12986 9.52403 5.72058 9.47714V2.15329ZM3.34558 5.12204H4.23621C4.31491 5.12214 4.39036 5.15345 4.44601 5.20911C4.50167 5.26476 4.53298 5.34021 4.53308 5.41892V9.32781C4.02938 9.24629 3.53301 9.12462 3.04871 8.96397V5.41892C3.04881 5.34021 3.08012 5.26476 3.13577 5.20911C3.19142 5.15345 3.26688 5.12214 3.34558 5.12204ZM11.6004 18.4814H3.70015L2.27796 9.94307C5.26492 11.0549 10.0414 11.0543 13.0226 9.94292L11.6004 18.4814Z" stroke="#E8590C" stroke-width="0.6"/>
</svg>
