<svg width="24" height="20" viewBox="0 0 24 20" fill="none" xmlns="http://www.w3.org/2000/svg">
<path d="M11.3857 0.800842C17.3498 0.295455 22.3558 4.77515 22.1865 10.7911C22.5238 10.8787 22.8338 11.0535 23.083 11.3018C23.399 11.6167 23.5992 12.0295 23.6504 12.4727L23.6621 12.6387C23.6723 12.9711 23.5986 13.3007 23.4473 13.5967L23.3652 13.7422C23.1678 14.0592 22.8841 14.31 22.5508 14.4717V16.7335L22.5381 16.9932C22.4863 17.5087 22.2835 17.9978 21.9551 18.3985L21.7803 18.5909C21.3491 19.022 20.784 19.2884 20.1826 19.3487L19.9229 19.3614H4.07715C3.46748 19.3607 2.87957 19.1488 2.41211 18.7657L2.21973 18.5909C1.72704 18.0982 1.45005 17.4302 1.44922 16.7335V14.4717C1.16565 14.3342 0.917426 14.1328 0.728516 13.8799L0.634766 13.7422C0.398963 13.3636 0.298434 12.9158 0.349609 12.4727L0.375977 12.3077C0.452912 11.9276 0.640559 11.5773 0.916992 11.3018L1.04004 11.1895C1.26497 11.0004 1.52903 10.8649 1.8125 10.7911C1.76831 9.56781 1.95501 8.34639 2.36816 7.19244L2.5459 6.73346C2.98718 5.67457 3.61466 4.70173 4.39941 3.86139L4.74512 3.50983C5.56991 2.71252 6.53143 2.06802 7.58496 1.60748L8.04102 1.42194C9.10914 1.01862 10.2415 0.808146 11.3857 0.800842ZM2.89062 16.7325L2.89648 16.8497C2.92364 17.1213 3.04453 17.3766 3.23926 17.5714L3.32617 17.6505C3.5372 17.8233 3.80295 17.9187 4.07812 17.919H19.9219C20.2364 17.9187 20.5383 17.7937 20.7607 17.5714L20.8398 17.4844C21.0127 17.2736 21.1089 17.0085 21.1094 16.7335V14.711H2.89062V16.7325ZM2.18457 12.1768C2.11804 12.1921 2.05502 12.2198 1.99902 12.2589L1.9209 12.3253C1.82485 12.4245 1.77149 12.5572 1.77148 12.6954C1.77148 12.8335 1.82485 12.9662 1.9209 13.0655L1.99902 13.1319C2.08287 13.1904 2.18253 13.2242 2.28613 13.2276H21.7236L21.8223 13.2169C21.9192 13.1974 22.0091 13.1501 22.0801 13.0792L22.1436 13.002C22.1984 12.9197 22.2284 12.8221 22.2285 12.7217V12.7042C22.2327 12.635 22.2237 12.5653 22.2002 12.5001C22.1767 12.4349 22.1402 12.3749 22.0928 12.3243C22.0692 12.2991 22.0427 12.2767 22.0146 12.2569L21.9238 12.2061C21.892 12.1923 21.859 12.182 21.8252 12.1749L21.7227 12.1631H2.28613L2.18457 12.1768ZM12.5684 2.24127C7.62025 1.78568 3.28113 5.3477 3.26562 10.3819V10.6797H20.7461C20.7763 9.65846 20.6173 8.63938 20.2725 7.67584C19.8961 6.62445 19.309 5.66104 18.5469 4.84479C17.7845 4.02834 16.8624 3.37623 15.8389 2.92877C14.9434 2.53731 13.9863 2.30923 13.0127 2.25494L12.5947 2.24225H12.5811L12.5684 2.24127Z" fill="#E8590C" stroke="#E8590C" stroke-width="0.6"/>
</svg>
