<svg width="33" height="48" viewBox="0 0 33 48" fill="none" xmlns="http://www.w3.org/2000/svg">
<rect width="33" height="48" fill="#F5F5F5"/>
<rect width="1280" height="1628" transform="translate(-44 -23)" fill="white"/>
<path d="M21.0596 0.849609L21.6191 0.864258C24.4093 1.0056 27.0561 2.17647 29.041 4.16113L29.4277 4.56738C31.303 6.63823 32.3494 9.33659 32.3525 12.1436L32.3486 12.2314C32.3429 12.2897 32.3315 12.3473 32.3145 12.4033L32.2852 12.4854C32.2515 12.5665 32.2059 12.6423 32.1504 12.71L32.0918 12.7754C32.0295 12.8377 31.9583 12.8903 31.8809 12.9316L31.8018 12.9688C31.7206 13.0024 31.635 13.0236 31.5479 13.0322L31.46 13.0371H1.74316C1.53595 13.0371 1.33564 12.9651 1.17676 12.835L1.11133 12.7754C0.943924 12.6079 0.849633 12.3803 0.849609 12.1436L0.864258 11.584C1.00563 8.79364 2.17619 6.14607 4.16113 4.16113L4.56738 3.77539C6.63822 1.90009 9.33658 0.852836 12.1436 0.849609H21.0596ZM11.6963 2.64648C9.61258 2.7471 7.61919 3.53032 6.02344 4.87402L5.6875 5.16992C3.97034 6.75965 2.90303 8.9253 2.68066 11.251H30.5225C30.3143 9.07406 29.366 7.03777 27.8369 5.48242L27.5156 5.16992C25.8685 3.6451 23.7393 2.75431 21.5068 2.64648L21.0586 2.63574H12.1445L11.6963 2.64648Z" fill="#E8590C" stroke="#E8590C" stroke-width="0.3"/>
<path d="M31.46 35.0244L31.5479 35.0292C31.635 35.0378 31.7206 35.0591 31.8018 35.0927L31.8809 35.1298C31.9583 35.1712 32.0295 35.2238 32.0918 35.2861C32.1747 35.369 32.2403 35.4678 32.2852 35.5761C32.33 35.6844 32.3526 35.8007 32.3525 35.9179V38.8896L32.3428 39.3017C32.2456 41.2209 31.4872 43.0482 30.1973 44.4726L29.9131 44.7714C28.4504 46.2341 26.4995 47.097 24.4434 47.2011L24.0312 47.2119H9.17188C7.10333 47.2095 5.11485 46.4377 3.58887 45.0556L3.29004 44.7714C1.72994 43.2113 0.852116 41.0959 0.849609 38.8896V35.9179L0.854492 35.829C0.87488 35.6248 0.964901 35.4325 1.11133 35.2861L1.17676 35.2265C1.33563 35.0963 1.53599 35.0244 1.74316 35.0244H31.46ZM2.63574 38.8896L2.64453 39.2128C2.72632 40.8279 3.40387 42.3598 4.55273 43.5087L4.78711 43.7324C5.98571 44.8179 7.5481 45.4238 9.17285 45.4257H24.0303C25.7633 45.4238 27.425 44.7341 28.6504 43.5087L28.874 43.2744C29.9594 42.0759 30.5655 40.5141 30.5674 38.8896V36.8105H2.63574V38.8896Z" fill="#E8590C" stroke="#E8590C" stroke-width="0.3"/>
<path d="M24.0244 20.3034C24.7602 20.3034 25.4802 20.5045 26.1074 20.8815L26.3701 21.0544L26.374 21.0563L26.5254 21.1618C26.8879 21.3928 27.3098 21.5163 27.7422 21.5163L27.9268 21.5095C28.3553 21.4745 28.7668 21.3177 29.1113 21.0563L29.1133 21.0544L29.376 20.8806C30.0018 20.5008 30.7238 20.3047 31.46 20.3161V20.3151L31.4609 20.3161L31.4629 20.3151L31.4619 20.3161C31.6981 20.3166 31.9248 20.4098 32.0918 20.5768L32.1504 20.6423C32.2805 20.8011 32.3525 21.0005 32.3525 21.2077C32.3525 21.4151 32.2808 21.6151 32.1504 21.7741L32.0918 21.8395C31.9243 22.007 31.6968 22.1003 31.46 22.1003H31.4561C31.0258 22.0895 30.6038 22.2089 30.2441 22.4401L30.0938 22.5466L30.0889 22.5505L30.0879 22.5495C29.4028 23.0373 28.5832 23.3005 27.7422 23.3005C26.901 23.3005 26.0807 23.0374 25.3955 22.5495L25.3916 22.5475C24.9983 22.2491 24.5181 22.0876 24.0244 22.0876C23.5307 22.0876 23.0505 22.2491 22.6572 22.5475L22.6543 22.5495L22.5664 22.4274L22.6533 22.5495C21.9691 23.0375 21.15 23.3005 20.3096 23.3005C19.4692 23.3005 18.65 23.0375 17.9658 22.5495L17.9619 22.5475C17.5693 22.2492 17.0897 22.0877 16.5967 22.0876C16.1035 22.0876 15.6232 22.2491 15.2305 22.5475L15.2275 22.5495L15.1396 22.4274L15.2266 22.5495C14.5423 23.0374 13.7232 23.3005 12.8828 23.3005C12.0423 23.3005 11.2224 23.0375 10.5381 22.5495L10.5342 22.5475V22.5466C10.1417 22.2485 9.66184 22.0876 9.16895 22.0876C8.67591 22.0877 8.19624 22.2492 7.80371 22.5475L7.80078 22.5495L7.71289 22.4274L7.7998 22.5495C7.1156 23.0375 6.29645 23.3005 5.45605 23.3005C4.61565 23.3005 3.79651 23.0375 3.1123 22.5495L3.10742 22.5466C2.7187 22.2461 2.23824 22.0881 1.74707 22.1003L1.74316 22.1013V22.1003C1.53579 22.1003 1.33571 22.0285 1.17676 21.8981L1.11133 21.8395C0.943871 21.6721 0.849609 21.4445 0.849609 21.2077C0.849643 20.9711 0.944093 20.7442 1.11133 20.5768L1.17676 20.5173C1.335 20.3875 1.53388 20.3167 1.74023 20.3161V20.3151L1.74121 20.3161L1.74316 20.3151V20.3161C2.47899 20.3047 3.20087 20.5006 3.82617 20.8806L4.08789 21.0544L4.09082 21.0563L4.01074 21.1618L4.09082 21.0573C4.48337 21.3556 4.96303 21.5173 5.45605 21.5173C5.94906 21.5173 6.42873 21.3556 6.82129 21.0573L6.8252 21.0544L7.08789 20.8815C7.71449 20.5045 8.43374 20.3035 9.16895 20.3034C9.90435 20.3034 10.6242 20.5044 11.251 20.8815L11.5137 21.0544L11.5176 21.0563L11.4375 21.1618L11.5176 21.0573C11.9102 21.3555 12.3898 21.5163 12.8828 21.5163C13.3758 21.5163 13.8554 21.3555 14.248 21.0573L14.252 21.0544L14.5146 20.8815C15.1414 20.5045 15.8613 20.3044 16.5967 20.3044C17.3319 20.3045 18.0511 20.5046 18.6777 20.8815L18.9404 21.0544L18.9443 21.0563L18.8643 21.1618L18.9443 21.0573C19.3369 21.3556 19.8166 21.5163 20.3096 21.5163C20.8026 21.5163 21.2822 21.3555 21.6748 21.0573L21.6787 21.0544L21.9414 20.8815C22.5687 20.5044 23.2886 20.3034 24.0244 20.3034Z" fill="black" stroke="black" stroke-width="0.3"/>
<path d="M27.7451 24.6234C28.9671 24.6234 30.1398 25.1089 31.0039 25.973L31.1611 26.139C31.9264 26.9842 32.3525 28.0862 32.3525 29.2318C32.3524 30.3771 31.9262 31.4785 31.1611 32.3235L31.0039 32.4896C30.1398 33.3537 28.9671 33.8392 27.7451 33.8392H5.45801C4.31239 33.8392 3.21045 33.4121 2.36523 32.6468L2.19922 32.4896C1.33527 31.6256 0.849725 30.4536 0.849609 29.2318C0.849609 28.0097 1.33513 26.837 2.19922 25.973L2.36523 25.8157C3.21044 25.0505 4.31241 24.6234 5.45801 24.6234H27.7451ZM5.45801 26.4095C4.70964 26.4095 3.99109 26.7065 3.46191 27.2357C2.93274 27.7648 2.63574 28.4834 2.63574 29.2318C2.63586 29.9799 2.93288 30.6978 3.46191 31.2269C3.99109 31.756 4.70964 32.053 5.45801 32.053H27.7461L28.0166 32.0403C28.6452 31.9812 29.2383 31.7119 29.6982 31.2718L29.8857 31.0755C30.2976 30.5972 30.538 29.9916 30.5645 29.3558L30.5625 29.0843C30.5278 28.4541 30.2821 27.8509 29.8604 27.3743C29.3915 26.8445 28.7405 26.5133 28.0381 26.4417L23.126 30.6526C22.9642 30.7912 22.7579 30.8665 22.5449 30.8665C22.3851 30.8665 22.229 30.8244 22.0928 30.7444L21.9639 30.6526L17.0137 26.4095H5.45801ZM22.5449 28.7982L25.332 26.4095H19.7578L22.5449 28.7982Z" fill="black" stroke="black" stroke-width="0.3"/>
<path d="M29.9746 14.2223L30.209 14.234C30.7537 14.288 31.2658 14.5291 31.6562 14.9196L31.8145 15.0944C32.161 15.5175 32.3525 16.0494 32.3525 16.6012C32.3525 17.1532 32.1612 17.6857 31.8145 18.109L31.6562 18.2838C31.2102 18.7297 30.6053 18.98 29.9746 18.9801H3.22852C2.6768 18.98 2.14482 18.7885 1.72168 18.442L1.54688 18.2838C1.10077 17.8377 0.849609 17.2321 0.849609 16.6012C0.849681 15.9704 1.10083 15.3656 1.54688 14.9196L1.72168 14.7614C2.14486 14.4147 2.67671 14.2224 3.22852 14.2223H29.9746ZM3.22852 16.0084C3.11058 16.0085 2.99609 16.0435 2.89941 16.108L2.80957 16.1823C2.69844 16.2934 2.63581 16.444 2.63574 16.6012C2.63574 16.7585 2.69837 16.9099 2.80957 17.0211L2.89941 17.0944C2.99614 17.159 3.11048 17.1939 3.22852 17.194H29.9746C30.1316 17.1939 30.2825 17.1321 30.3936 17.0211L30.4678 16.9303C30.5322 16.8336 30.5674 16.7191 30.5674 16.6012C30.5673 16.4833 30.5323 16.3688 30.4678 16.2721L30.3936 16.1823C30.2825 16.0711 30.1317 16.0085 29.9746 16.0084H3.22852Z" fill="black" stroke="black" stroke-width="0.3"/>
</svg>
